<svg width="1735" height="281" viewBox="0 0 1735 281" fill="none" xmlns="http://www.w3.org/2000/svg">
<path d="M575.392 173.516C579.82 172.174 582.864 168.184 583.087 163.522C584.524 133.681 611.383 112.956 640.475 113C660.264 113.037 680.41 121.497 692.37 137.627C694.58 140.614 698.42 142.001 702.112 141.204C705.111 140.555 708.237 140.245 711.452 140.319C728.576 140.71 743.729 152.651 747.249 169.378C747.695 171.51 749.474 173.081 751.625 173.192H751.692C767.797 174.077 779.511 188.503 778.983 204.08C778.432 220.299 764.307 232.941 747.978 231.945C693.784 228.692 639.686 227.372 585.424 229.614C569.237 230.44 554.955 219.23 555 202.59C555.037 190.251 563.187 177.219 575.399 173.516H575.392Z" fill="white"/>
<path d="M1101.86 180.251C1094.23 177.938 1088.98 171.064 1088.6 163.034C1086.12 111.627 1039.84 75.9239 989.709 76.0001C955.608 76.0637 920.892 90.6371 900.283 118.425C896.474 123.57 889.856 125.959 883.495 124.587C878.327 123.469 872.941 122.935 867.4 123.062C837.891 123.736 811.78 144.306 805.714 173.123C804.944 176.795 801.879 179.501 798.173 179.691H798.058C770.305 181.216 750.119 206.069 751.03 232.903C751.979 260.843 776.32 282.62 804.457 280.905C897.846 275.302 991.068 273.028 1084.57 276.89C1112.47 278.313 1137.08 259.001 1137 230.336C1136.94 209.08 1122.89 186.629 1101.85 180.251H1101.86Z" fill="white"/>
<path d="M350.86 135.251C343.23 132.938 337.984 126.064 337.6 118.034C335.125 66.6269 288.84 30.9239 238.709 31.0001C204.608 31.0637 169.892 45.6371 149.283 73.4245C145.474 78.5703 138.856 80.959 132.495 79.5868C127.327 78.4687 121.941 77.935 116.4 78.0621C86.8909 78.7355 60.7799 99.3061 54.7139 128.123C53.9444 131.795 50.8793 134.501 47.173 134.691H47.0576C19.305 136.216 -0.880936 161.069 0.0296126 187.903C0.978636 215.843 25.3198 237.62 53.457 235.905C146.846 230.302 240.068 228.028 333.573 231.89C361.466 233.313 386.077 214.001 386 185.336C385.936 164.08 371.893 141.629 350.848 135.251H350.86Z" fill="white"/>
<path opacity="0.5" d="M419.104 39.9526C421.08 39.3547 422.439 37.5776 422.539 35.5015C423.18 22.2109 435.171 12.9803 448.158 13C456.993 13.0165 465.987 16.7842 471.326 23.9683C472.312 25.2987 474.027 25.9162 475.675 25.5615C477.014 25.2724 478.409 25.1344 479.844 25.1673C487.489 25.3414 494.254 30.6596 495.825 38.1098C496.025 39.0591 496.819 39.7588 497.779 39.808H497.809C504.999 40.2022 510.228 46.6275 509.992 53.5652C509.746 60.7887 503.44 66.419 496.151 65.9755C471.957 64.5269 447.806 63.9389 423.582 64.9375C416.356 65.3054 409.98 60.3123 410 52.9016C410.017 47.406 413.655 41.6016 419.107 39.9526H419.104Z" fill="white"/>
<path opacity="0.5" d="M1363.22 77.8065C1368.91 76.0806 1372.83 70.9504 1373.11 64.9573C1374.96 26.5899 1409.49 -0.0568059 1446.9 9.09399e-05C1472.34 0.047505 1498.24 10.9243 1513.62 31.6632C1516.46 35.5037 1521.4 37.2865 1526.14 36.2623C1530 35.4278 1534.02 35.0296 1538.15 35.1244C1560.17 35.627 1579.65 50.9796 1584.18 72.4866C1584.75 75.2272 1587.04 77.247 1589.8 77.3892H1589.89C1610.6 78.5272 1625.66 97.0756 1624.98 117.103C1624.27 137.956 1606.11 154.209 1585.11 152.929C1515.44 148.747 1445.88 147.05 1376.12 149.933C1355.3 150.995 1336.94 136.581 1337 115.188C1337.05 99.323 1347.53 82.5669 1363.23 77.8065H1363.22Z" fill="white"/>
<path d="M1708.78 153.806C1703.09 152.081 1699.17 146.95 1698.89 140.957C1697.04 102.59 1662.51 75.9432 1625.1 76.0001C1599.66 76.0475 1573.76 86.9243 1558.38 107.663C1555.54 111.504 1550.6 113.286 1545.86 112.262C1542 111.428 1537.98 111.03 1533.85 111.124C1511.83 111.627 1492.35 126.98 1487.82 148.487C1487.25 151.227 1484.96 153.247 1482.2 153.389H1482.11C1461.4 154.527 1446.34 173.076 1447.02 193.103C1447.73 213.956 1465.89 230.209 1486.89 228.929C1556.56 224.747 1626.12 223.05 1695.88 225.933C1716.7 226.995 1735.06 212.581 1735 191.188C1734.95 175.323 1724.47 158.567 1708.77 153.806H1708.78Z" fill="white"/>
</svg>
