<svg width="1581" height="525" viewBox="0 0 1581 525" fill="none" xmlns="http://www.w3.org/2000/svg">
<path opacity="0.2" d="M366.123 68.6528C371.144 67.13 374.596 62.6033 374.849 57.3153C376.478 23.4616 406.934 -0.0501228 439.922 8.02411e-05C462.361 0.0419161 485.206 9.63907 498.767 27.9381C501.274 31.3268 505.628 32.8998 509.814 31.9962C513.215 31.2599 516.759 30.9084 520.405 30.9921C539.823 31.4356 557.005 44.982 560.997 63.9588C561.503 66.3769 563.52 68.1591 565.959 68.2846H566.035C584.297 69.2887 597.58 85.6549 596.981 103.326C596.356 121.726 580.339 136.067 561.824 134.938C500.371 131.248 439.028 129.75 377.499 132.294C359.144 133.231 342.949 120.513 343 101.636C343.042 87.6379 352.283 72.8531 366.131 68.6528H366.123Z" fill="white"/>
<path opacity="0.2" d="M1406.48 338.871C1410.27 337.72 1412.88 334.3 1413.07 330.305C1414.31 304.727 1437.33 286.962 1462.26 287C1479.23 287.032 1496.49 294.283 1506.75 308.109C1508.64 310.669 1511.93 311.858 1515.1 311.175C1517.67 310.619 1520.35 310.353 1523.1 310.416C1537.78 310.751 1550.77 320.986 1553.78 335.324C1554.17 337.151 1555.69 338.498 1557.54 338.593H1557.59C1571.4 339.351 1581.44 351.717 1580.99 365.069C1580.51 378.971 1568.41 389.806 1554.41 388.953C1507.96 386.165 1461.59 385.033 1415.08 386.955C1401.2 387.663 1388.96 378.054 1389 363.792C1389.03 353.215 1396.02 342.045 1406.49 338.871H1406.48Z" fill="white"/>
<path opacity="0.2" d="M117.256 304.581C114.706 303.814 112.953 301.534 112.825 298.87C111.998 281.818 96.5296 269.975 79.7758 270C68.3794 270.021 56.7773 274.855 49.8898 284.073C48.6169 285.779 46.4053 286.572 44.2795 286.117C42.5523 285.746 40.7522 285.569 38.9006 285.611C29.0387 285.834 20.3125 292.658 18.2852 302.216C18.028 303.434 17.0037 304.332 15.7651 304.395H15.7265C6.45168 304.901 -0.294406 313.145 0.00989645 322.046C0.327057 331.314 8.4618 338.538 17.8652 337.969C49.0755 336.11 80.2301 335.356 111.479 336.637C120.801 337.109 129.026 330.703 129 321.195C128.979 314.144 124.285 306.696 117.252 304.581H117.256Z" fill="white"/>
<path opacity="0.15" d="M1272.58 406.558C1263.58 403.839 1257.4 395.759 1256.95 386.318C1254.03 325.883 1199.47 283.911 1140.38 284C1100.18 284.075 1059.26 301.208 1034.97 333.875C1030.48 339.924 1022.68 342.732 1015.18 341.119C1009.09 339.805 1002.74 339.177 996.208 339.327C961.423 340.118 930.645 364.301 923.494 398.178C922.587 402.495 918.974 405.677 914.605 405.901H914.469C881.756 407.693 857.962 436.91 859.035 468.457C860.154 501.303 888.846 526.905 922.013 524.889C1032.1 518.301 1141.98 515.628 1252.2 520.168C1285.08 521.841 1314.09 499.137 1314 465.439C1313.92 440.45 1297.37 414.056 1272.56 406.558H1272.58Z" fill="white"/>
</svg>
